<svg width="30" height="24" viewBox="0 0 30 24" fill="none" xmlns="http://www.w3.org/2000/svg">
<path d="M1.94482 22.2767L1.94482 14.9267C1.94808 13.8138 2.38676 12.7475 3.16505 11.9605C3.94334 11.1736 4.998 10.73 6.09867 10.7267L24.791 10.7267C25.8916 10.73 26.9463 11.1736 27.7246 11.9605C28.5029 12.7475 28.9416 13.8138 28.9448 14.9267L28.9448 22.2767M23.7525 10.7267L5.06021 10.7267L5.06021 3.90173C5.06226 3.20618 5.33645 2.53971 5.82287 2.04787C6.3093 1.55604 6.96845 1.27881 7.65636 1.27673L23.2333 1.27673C23.9212 1.27881 24.5803 1.55604 25.0668 2.04787C25.5532 2.53971 25.8274 3.20618 25.8294 3.90173L25.8294 10.7267L23.7525 10.7267Z" stroke="#8E8888" stroke-width="2" stroke-linecap="round" stroke-linejoin="round"/>
<path d="M1.94482 22.2767L1.94482 21.7517C1.94602 21.3343 2.11052 20.9344 2.40239 20.6393C2.69425 20.3442 3.08976 20.1779 3.50252 20.1767L27.3871 20.1767C27.7999 20.1779 28.1954 20.3442 28.4873 20.6393C28.7791 20.9344 28.9436 21.3343 28.9448 21.7517L28.9448 22.2767M6.09867 10.7267L6.09867 9.67669C6.10021 9.12022 6.31952 8.58698 6.70869 8.19349C7.09786 7.8 7.62523 7.57825 8.17559 7.57669L13.3679 7.57669C13.9183 7.57825 14.4456 7.8 14.8348 8.19349C15.224 8.58698 15.4433 9.12022 15.4448 9.67669M15.4448 9.67669L15.4448 10.7267M15.4448 9.67669C15.4464 9.12022 15.6657 8.58698 16.0548 8.19349C16.444 7.8 16.9714 7.57825 17.5217 7.57669L22.7141 7.57669C23.2644 7.57825 23.7918 7.8 24.181 8.19349C24.5701 8.58698 24.7894 9.12022 24.791 9.67669L24.791 10.7267" stroke="#8E8888" stroke-width="2" stroke-linecap="round" stroke-linejoin="round"/>
</svg>
