<svg width="28" height="28" viewBox="0 0 28 28" fill="none" xmlns="http://www.w3.org/2000/svg">
<path d="M25.2 28H2.8C1.21333 28 0 26.7866 0 25.2V4.66664C0 3.07997 1.02667 1.86664 2.33333 1.86664H3.73333V3.7333H2.33333C2.14667 3.7333 1.86667 4.10664 1.86667 4.66664V25.2C1.86667 25.76 2.24 26.1333 2.8 26.1333H25.2C25.76 26.1333 26.1333 25.76 26.1333 25.2V4.66664C26.1333 4.10664 25.8533 3.7333 25.6667 3.7333H24.2667V1.86664H25.6667C26.9733 1.86664 28 3.07997 28 4.66664V25.2C28 26.7866 26.7867 28 25.2 28Z" fill="#8E8888"/>
<path d="M6.53334 5.6C5.97334 5.6 5.6 5.22667 5.6 4.66667V0.933333C5.6 0.373333 5.97334 0 6.53334 0C7.09334 0 7.46667 0.373333 7.46667 0.933333V4.66667C7.46667 5.22667 7.09334 5.6 6.53334 5.6ZM21.4667 5.6C20.9067 5.6 20.5333 5.22667 20.5333 4.66667V0.933333C20.5333 0.373333 20.9067 0 21.4667 0C22.0267 0 22.4 0.373333 22.4 0.933333V4.66667C22.4 5.22667 22.0267 5.6 21.4667 5.6ZM9.33334 1.86667H18.6667V3.73333H9.33334V1.86667ZM1.86667 7.46667H26.1333V9.33333H1.86667V7.46667ZM22.4 11.2H24.2667V13.0667H22.4V11.2ZM18.6667 11.2H20.5333V13.0667H18.6667V11.2ZM14.9333 11.2H16.8V13.0667H14.9333V11.2ZM11.2 11.2H13.0667V13.0667H11.2V11.2ZM7.46667 11.2H9.33334V13.0667H7.46667V11.2ZM22.4 14.9333H24.2667V16.8H22.4V14.9333ZM18.6667 14.9333H20.5333V16.8H18.6667V14.9333ZM14.9333 14.9333H16.8V16.8H14.9333V14.9333ZM11.2 14.9333H13.0667V16.8H11.2V14.9333ZM7.46667 14.9333H9.33334V16.8H7.46667V14.9333ZM3.73334 14.9333H5.6V16.8H3.73334V14.9333ZM22.4 18.6667H24.2667V20.5333H22.4V18.6667ZM18.6667 18.6667H20.5333V20.5333H18.6667V18.6667ZM14.9333 18.6667H16.8V20.5333H14.9333V18.6667ZM11.2 18.6667H13.0667V20.5333H11.2V18.6667ZM7.46667 18.6667H9.33334V20.5333H7.46667V18.6667ZM3.73334 18.6667H5.6V20.5333H3.73334V18.6667ZM18.6667 22.4H20.5333V24.2667H18.6667V22.4ZM14.9333 22.4H16.8V24.2667H14.9333V22.4ZM11.2 22.4H13.0667V24.2667H11.2V22.4ZM7.46667 22.4H9.33334V24.2667H7.46667V22.4ZM3.73334 22.4H5.6V24.2667H3.73334V22.4Z" fill="#8E8888"/>
</svg>
