<svg width="42" height="47" viewBox="0 0 42 47" fill="none" xmlns="http://www.w3.org/2000/svg">
<path d="M38.64 21.9987L23.3333 15.1374V11.7538C23.3333 10.4614 22.2833 9.40401 21 9.40401C19.7167 9.40401 18.6667 8.34662 18.6667 7.05426C18.6667 5.7619 19.7167 4.70451 21 4.70451C22.2833 4.70451 23.3333 5.7619 23.3333 7.05426H28C28 2.73072 24.1267 -0.699914 19.6933 0.122498C16.94 0.639443 14.6767 2.87171 14.14 5.64441C13.44 9.31002 15.54 12.5527 18.6667 13.6806V15.1609L3.36 22.0222C1.30667 22.9151 0 24.9594 0 27.1916V27.2151C0 30.3638 2.52 32.9015 5.64667 32.9015H9.33333V47H32.6667V32.9015H36.3533C39.48 32.9015 42 30.3638 42 27.2151V27.1916C42 24.9594 40.6933 22.9151 38.64 21.9987ZM36.3533 28.202H32.6667V25.8523H9.33333V28.202H5.64667C5.11 28.202 4.66667 27.7556 4.66667 27.1916C4.66667 26.7922 4.9 26.4397 5.25 26.2987L21 19.2495L36.75 26.2987C36.957 26.3907 37.1263 26.5515 37.2297 26.7542C37.333 26.9569 37.364 27.1892 37.3175 27.4122C37.271 27.6352 37.1499 27.8354 36.9744 27.9791C36.7988 28.1229 36.5796 28.2016 36.3533 28.202Z" fill="#333333"/>
</svg>
