<svg width="19" height="19" viewBox="0 0 19 19" fill="none" xmlns="http://www.w3.org/2000/svg">
<path d="M17.6375 1.3754C17.518 1.25566 17.376 1.16066 17.2198 1.09584C17.0635 1.03102 16.896 0.99766 16.7269 0.99766C16.5577 0.99766 16.3902 1.03102 16.2339 1.09584C16.0777 1.16066 15.9357 1.25566 15.8162 1.3754L9.49998 7.67873L3.18373 1.36248C3.06415 1.2429 2.92218 1.14804 2.76594 1.08332C2.60969 1.0186 2.44223 0.985291 2.27311 0.985291C2.10399 0.985291 1.93653 1.0186 1.78028 1.08332C1.62404 1.14804 1.48207 1.2429 1.36248 1.36248C1.2429 1.48207 1.14804 1.62404 1.08332 1.78028C1.0186 1.93653 0.985291 2.10399 0.985291 2.27311C0.985291 2.44223 1.0186 2.60969 1.08332 2.76594C1.14804 2.92218 1.2429 3.06415 1.36248 3.18373L7.67873 9.49998L1.36248 15.8162C1.2429 15.9358 1.14804 16.0778 1.08332 16.234C1.0186 16.3903 0.985291 16.5577 0.985291 16.7269C0.985291 16.896 1.0186 17.0634 1.08332 17.2197C1.14804 17.3759 1.2429 17.5179 1.36248 17.6375C1.48207 17.7571 1.62404 17.8519 1.78028 17.9166C1.93653 17.9814 2.10399 18.0147 2.27311 18.0147C2.44223 18.0147 2.60969 17.9814 2.76594 17.9166C2.92218 17.8519 3.06415 17.7571 3.18373 17.6375L9.49998 11.3212L15.8162 17.6375C15.9358 17.7571 16.0778 17.8519 16.234 17.9166C16.3903 17.9814 16.5577 18.0147 16.7269 18.0147C16.896 18.0147 17.0634 17.9814 17.2197 17.9166C17.3759 17.8519 17.5179 17.7571 17.6375 17.6375C17.7571 17.5179 17.8519 17.3759 17.9166 17.2197C17.9814 17.0634 18.0147 16.896 18.0147 16.7269C18.0147 16.5577 17.9814 16.3903 17.9166 16.234C17.8519 16.0778 17.7571 15.9358 17.6375 15.8162L11.3212 9.49998L17.6375 3.18373C18.1283 2.6929 18.1283 1.86623 17.6375 1.3754Z" fill="#707070"/>
</svg>
