<svg width="38" height="33" viewBox="0 0 38 33" fill="none" xmlns="http://www.w3.org/2000/svg">
<path d="M14.6821 3.47368C14.0016 3.47368 13.3277 3.60846 12.699 3.87031C12.0703 4.13217 11.4991 4.51597 11.0179 4.99981C10.5367 5.48365 10.155 6.05806 9.89461 6.69023C9.6342 7.3224 9.50016 7.99995 9.50016 8.68421C9.50016 9.36847 9.6342 10.046 9.89461 10.6782C10.155 11.3104 10.5367 11.8848 11.0179 12.3686C11.4991 12.8525 12.0703 13.2363 12.699 13.4981C13.3277 13.76 14.0016 13.8947 14.6821 13.8947C16.0564 13.8947 17.3744 13.3458 18.3462 12.3686C19.318 11.3914 19.864 10.0661 19.864 8.68421C19.864 7.30229 19.318 5.97698 18.3462 4.99981C17.3744 4.02265 16.0564 3.47368 14.6821 3.47368ZM6.04556 8.68421C6.04556 6.38101 6.95547 4.17215 8.57513 2.54355C10.1948 0.914941 12.3915 0 14.6821 0C16.9726 0 19.1693 0.914941 20.789 2.54355C22.4087 4.17215 23.3186 6.38101 23.3186 8.68421C23.3186 10.9874 22.4087 13.1963 20.789 14.8249C19.1693 16.4535 16.9726 17.3684 14.6821 17.3684C12.3915 17.3684 10.1948 16.4535 8.57513 14.8249C6.95547 13.1963 6.04556 10.9874 6.04556 8.68421ZM35.5358 6.336L36.3943 7.84184C37.447 9.68521 38.0006 11.7739 38 13.8995C37.9994 16.0252 37.4446 18.1136 36.3908 19.9563L35.5289 21.4622L32.5355 19.7305L33.3957 18.2247C34.1484 16.9085 34.5449 15.417 34.5455 13.8987C34.5461 12.3804 34.1508 10.8885 33.3991 9.57174L32.5389 8.0659L35.5358 6.336ZM30.2934 9.36158L31.1519 10.8692C31.6783 11.7906 31.9554 12.8347 31.9554 13.8973C31.9554 14.96 31.6783 16.0041 31.1519 16.9255L30.2882 18.4314L27.2948 16.6997L28.155 15.1939C28.381 14.7989 28.4999 14.3513 28.4999 13.8956C28.4999 13.4399 28.381 12.9923 28.155 12.5973L27.2966 11.0915L30.2934 9.36158ZM0 29.5263C0 27.2231 0.909916 25.0143 2.52958 23.3857C4.14924 21.757 6.34597 20.8421 8.63651 20.8421H20.7276C23.0182 20.8421 25.2149 21.757 26.8346 23.3857C28.4542 25.0143 29.3641 27.2231 29.3641 29.5263V33H25.9095V29.5263C25.9095 28.1444 25.3636 26.8191 24.3918 25.8419C23.42 24.8648 22.102 24.3158 20.7276 24.3158H8.63651C7.26219 24.3158 5.94415 24.8648 4.97235 25.8419C4.00055 26.8191 3.4546 28.1444 3.4546 29.5263V33H0V29.5263Z" fill="#333333"/>
</svg>
