<svg width="25" height="14" viewBox="0 0 25 14" fill="none" xmlns="http://www.w3.org/2000/svg">
<path d="M12.6606 11.3202L23.1413 0.901124C23.243 0.799311 23.3643 0.718858 23.4978 0.664532C23.6314 0.610206 23.7745 0.583111 23.9188 0.584851C24.063 0.586592 24.2055 0.617133 24.3377 0.674666C24.4698 0.732198 24.5891 0.815552 24.6883 0.919791C24.8916 1.133 25.0034 1.41673 24.9999 1.71069C24.9964 2.00464 24.8779 2.28565 24.6696 2.494L13.4138 13.683C13.3128 13.7843 13.1926 13.8644 13.0601 13.9189C12.9276 13.9733 12.7856 14.0008 12.6422 14C12.4989 13.9991 12.3572 13.9698 12.2254 13.9138C12.0936 13.8578 11.9744 13.7762 11.8746 13.6737L0.318818 1.89667C0.114303 1.68584 0 1.40421 0 1.11112C0 0.818041 0.114303 0.536405 0.318818 0.325572C0.419315 0.222556 0.539557 0.140661 0.672422 0.0847381C0.805287 0.028815 0.948075 0 1.09233 0C1.23658 0 1.37937 0.028815 1.51224 0.0847381C1.6451 0.140661 1.76534 0.222556 1.86584 0.325572L12.6606 11.3202Z" fill="#7D7D7D"/>
</svg>
