<svg width="40" height="40" viewBox="0 0 40 40" fill="none" xmlns="http://www.w3.org/2000/svg">
<path d="M0.0425 20.835C0.485 31.4737 9.25375 40 20 40C30.7463 40 39.515 31.4737 39.9575 20.835C39.9838 20.768 39.9982 20.6969 40 20.625C40 20.58 39.9837 20.5412 39.975 20.5C39.9787 20.3325 40 20.1688 40 20C40 8.9725 31.0275 0 20 0C8.9725 0 0 8.9725 0 20C0 20.1688 0.02125 20.3325 0.025 20.5C0.01625 20.5412 0 20.58 0 20.625C0 20.7 0.01875 20.7687 0.0425 20.835ZM31.1512 28.4275C29.4528 27.7225 27.6876 27.1902 25.8825 26.8388C26.08 25.0225 26.1963 23.1362 26.2325 21.2512H32.4575C32.3437 23.8187 31.8875 26.2425 31.1512 28.4275ZM33.7063 21.25H38.6862C38.4659 24.6533 37.3144 27.9306 35.3575 30.7238C34.3854 30.0397 33.3581 29.4376 32.2863 28.9237C33.0925 26.5875 33.5888 23.995 33.7063 21.25ZM15.4862 27.8575C16.9793 27.622 18.4884 27.5024 20 27.5C21.53 27.5 23.0413 27.6275 24.5125 27.8575C23.645 34.5262 21.75 38.75 20 38.75C18.25 38.75 16.355 34.5262 15.4862 27.8575ZM17.385 38.33C13.9463 37.2275 11.0375 33.9913 9.2825 29.6C10.89 28.9276 12.5609 28.418 14.27 28.0787C14.8438 32.4487 15.8925 36.2562 17.385 38.33ZM15.3425 13.3862C16.8834 13.6262 18.4405 13.7479 20 13.75C21.5595 13.7479 23.1166 13.6262 24.6575 13.3862C24.8725 15.4112 25 17.6213 25 20H15C15 17.6213 15.1275 15.4112 15.3425 13.3862ZM24.9813 21.25C24.9514 23.0418 24.843 24.8314 24.6563 26.6138C23.1157 26.3737 21.5591 26.252 20 26.25C18.4405 26.2521 16.8834 26.3737 15.3425 26.6138C15.1552 24.8315 15.0468 23.0418 15.0175 21.25H24.9813ZM25.7312 28.0787C27.4862 28.4312 29.16 28.9438 30.7188 29.6C28.9638 33.9913 26.055 37.2275 22.6163 38.33C24.1075 36.2562 25.1562 32.4487 25.7312 28.0787ZM26.25 20C26.25 17.705 26.1225 15.38 25.8825 13.1625C27.7325 12.7975 29.5025 12.2625 31.1512 11.5737C32.0062 14.11 32.5 16.9675 32.5 20H26.25ZM25.7312 11.9212C25.1562 7.55125 24.1087 3.7425 22.615 1.67C26.0537 2.7725 28.9625 6.00875 30.7175 10.4C29.1106 11.0729 27.4401 11.5826 25.7312 11.9212ZM24.5138 12.1425C23.0413 12.3725 21.53 12.5 20 12.5C18.47 12.5 16.9587 12.3725 15.4862 12.1425C16.355 5.47375 18.25 1.25 20 1.25C21.75 1.25 23.645 5.47375 24.5138 12.1425ZM14.2687 11.9212C12.5597 11.5818 10.8888 11.0722 9.28125 10.4C11.0363 6.00875 13.945 2.7725 17.3837 1.67C15.8925 3.74375 14.8437 7.55125 14.2687 11.9212ZM14.1175 13.1625C13.8733 15.4335 13.7507 17.7159 13.75 20H7.5C7.5 16.9675 7.99375 14.11 8.84875 11.5725C10.4975 12.2625 12.2675 12.7962 14.1175 13.1625ZM13.7675 21.25C13.8037 23.135 13.92 25.0213 14.1175 26.8388C12.2675 27.2038 10.4975 27.7388 8.84875 28.4275C8.1125 26.2425 7.65625 23.8188 7.5425 21.25H13.7675ZM7.7125 28.9237C6.64129 29.4381 5.61446 30.0401 4.6425 30.7238C2.68547 27.9307 1.53393 24.6533 1.31375 21.25H6.29375C6.41125 23.995 6.9075 26.5875 7.7125 28.9237ZM5.39125 31.725C6.26608 31.1089 7.18858 30.5634 8.15 30.0938C9.405 33.2 11.2113 35.7787 13.3825 37.5225C10.2501 36.3359 7.49137 34.3345 5.39125 31.725ZM26.6175 37.5213C28.79 35.7788 30.595 33.1987 31.85 30.0925C32.8375 30.5725 33.7525 31.125 34.6088 31.7237C32.5093 34.334 29.7504 36.3356 26.6175 37.5213ZM33.75 20C33.75 16.7913 33.215 13.7663 32.2875 11.0763C33.3875 10.5488 34.41 9.9425 35.3588 9.27625C37.5665 12.4163 38.7509 16.1615 38.75 20H33.75ZM34.61 8.275C33.7537 8.87375 32.8388 9.42625 31.8513 9.90625C30.5963 6.8 28.79 4.22 26.6188 2.4775C29.7508 3.66475 32.5094 5.66606 34.61 8.275ZM13.3825 2.47875C11.21 4.22125 9.405 6.80125 8.15 9.9075C7.18866 9.43721 6.26617 8.89133 5.39125 8.275C7.49111 5.66555 10.25 3.66447 13.3825 2.47875ZM4.6425 9.27625C5.61429 9.96013 6.64114 10.5622 7.7125 11.0763C6.73489 13.9495 6.24068 16.965 6.25 20H1.25C1.25 16.0125 2.51125 12.3188 4.6425 9.27625Z" fill="#FAFAFA"/>
</svg>
