<svg width="46" height="32" viewBox="0 0 46 32" fill="none" xmlns="http://www.w3.org/2000/svg">
<path d="M22.4818 18.1789C24.2631 18.1789 26.0044 17.6457 27.4855 16.6467C28.9665 15.6478 30.1207 14.2279 30.8022 12.5668C31.4837 10.9057 31.6618 9.0779 31.314 7.3146C30.9662 5.55131 30.108 3.93174 28.8482 2.66073C27.5883 1.38972 25.9833 0.524372 24.2361 0.174136C22.4889 -0.176101 20.6781 0.00450831 19.0326 0.693119C17.3872 1.38173 15.981 2.54741 14.992 4.04272C14.0029 5.53802 13.4755 7.29579 13.4763 9.09369C13.4763 10.2871 13.7093 11.4689 14.1619 12.5714C14.6145 13.674 15.2779 14.6757 16.1142 15.5194C16.9505 16.3631 17.9433 17.0322 19.0359 17.4885C20.1285 17.9448 21.2994 18.1794 22.4818 18.1789Z" fill="#FFCD00"/>
<path d="M22.5377 22.7214H22.5076C16.3304 22.7198 10.9404 18.4911 9.41472 12.4496C8.9626 10.6324 7.49826 9.09369 5.64194 9.09369H0C0 21.64 10.077 31.811 22.5076 31.811H22.5377V22.7214Z" fill="#00ECBB"/>
<path d="M22.4817 22.7214H22.5075C28.6853 22.7214 34.0761 18.492 35.6003 12.4496C36.0569 10.6324 37.5211 9.09369 39.3776 9.09369H45.0194C45.0171 21.6407 34.9389 31.811 22.5075 31.811H22.4817V22.7214Z" fill="#AF64FF"/>
<path d="M38.4257 25.1556C36.3356 27.2653 33.8543 28.9388 31.1235 30.0806C28.3926 31.2223 25.4656 31.81 22.5097 31.81C19.5538 31.81 16.6269 31.2223 13.896 30.0806C11.1651 28.9388 8.6838 27.2653 6.59375 25.1556L12.9592 18.7308C18.2348 24.0521 26.7845 24.0521 32.0601 18.7308L38.4257 25.1556Z" fill="#7131FF"/>
</svg>
