<svg width="43" height="37" viewBox="0 0 43 37" fill="none" xmlns="http://www.w3.org/2000/svg">
<path d="M21.6965 35.8996L21.6907 35.9028C21.6172 35.9423 21.5351 35.963 21.4517 35.963C21.3683 35.963 21.2862 35.9423 21.2128 35.9028L21.2069 35.8997C20.8252 35.6975 15.8133 32.9657 10.912 28.6734C5.95808 24.335 1.3909 18.6395 1.39062 12.5261C1.39396 9.70007 2.51807 6.99075 4.51637 4.99245C6.51468 2.99414 9.224 1.87004 12.05 1.8667C15.6407 1.86686 18.7348 3.406 20.6521 5.95954L21.4517 7.0246L22.2514 5.95954C24.1687 3.406 27.2628 1.86686 30.8535 1.8667C33.6795 1.87003 36.3888 2.99414 38.3871 4.99245C40.3856 6.99089 41.5097 9.70044 41.5129 12.5267C41.5123 18.6399 36.9453 24.3351 31.9915 28.6734C27.0902 32.9657 22.0783 35.6975 21.6965 35.8996Z" fill="#333333" fill-opacity="0.37" stroke="#F7F7F7" stroke-width="2"/>
</svg>
