<svg width="43" height="37" viewBox="0 0 43 37" fill="none" xmlns="http://www.w3.org/2000/svg">
<path d="M42.5195 11.7198C42.5195 24.8747 23.0145 35.5227 22.1839 35.9624C21.965 36.0802 21.7203 36.1419 21.4717 36.1419C21.2231 36.1419 20.9784 36.0802 20.7594 35.9624C19.9288 35.5227 0.423828 24.8747 0.423828 11.7198C0.42731 8.63074 1.65599 5.66917 3.84031 3.48484C6.02464 1.30052 8.98621 0.0718412 12.0753 0.0683594C15.956 0.0683594 19.3537 1.73715 21.4717 4.55794C23.5896 1.73715 26.9873 0.0683594 30.868 0.0683594C33.9571 0.0718412 36.9187 1.30052 39.103 3.48484C41.2873 5.66917 42.516 8.63074 42.5195 11.7198Z" fill="#EC4747"/>
</svg>
