<svg width="30" height="36" viewBox="0 0 30 36" fill="none" xmlns="http://www.w3.org/2000/svg">
<path fill-rule="evenodd" clip-rule="evenodd" d="M6.48291 15.1009C6.48291 12.9267 7.34658 10.8416 8.88393 9.30428C10.4213 7.76693 12.5064 6.90326 14.6805 6.90326C16.8547 6.90326 18.9397 7.76693 20.4771 9.30428C22.0144 10.8416 22.8781 12.9267 22.8781 15.1009C22.8781 17.275 22.0144 19.3601 20.4771 20.8974C18.9397 22.4348 16.8547 23.2985 14.6805 23.2985C12.5064 23.2985 10.4213 22.4348 8.88393 20.8974C7.34658 19.3601 6.48291 17.275 6.48291 15.1009ZM14.6805 9.49198C13.1929 9.49198 11.7663 10.0829 10.7144 11.1348C9.66256 12.1866 9.07163 13.6133 9.07163 15.1009C9.07163 16.5884 9.66256 18.0151 10.7144 19.0669C11.7663 20.1188 13.1929 20.7097 14.6805 20.7097C16.1681 20.7097 17.5947 20.1188 18.6466 19.0669C19.6985 18.0151 20.2894 16.5884 20.2894 15.1009C20.2894 13.6133 19.6985 12.1866 18.6466 11.1348C17.5947 10.0829 16.1681 9.49198 14.6805 9.49198Z" fill="#333333"/>
<path fill-rule="evenodd" clip-rule="evenodd" d="M0.0521812 13.1282C0.347168 9.5503 1.97685 6.21411 4.61766 3.78207C7.25848 1.35003 10.7173 -1.0934e-05 14.3074 0H15.0529C18.643 -1.0934e-05 22.1018 1.35003 24.7426 3.78207C27.3835 6.21411 29.0131 9.5503 29.3081 13.1282C29.6364 17.1136 28.4052 21.0709 25.8738 24.1665L17.602 34.2815C17.248 34.7144 16.8022 35.0632 16.2969 35.3027C15.7916 35.5423 15.2394 35.6665 14.6802 35.6665C14.1209 35.6665 13.5687 35.5423 13.0634 35.3027C12.5581 35.0632 12.1124 34.7144 11.7584 34.2815L3.48654 24.1665C0.954981 21.071 -0.276266 17.1136 0.0521812 13.1282ZM14.3074 2.58872C11.3674 2.58916 8.53512 3.69501 6.37265 5.68675C4.21019 7.6785 2.87567 10.4105 2.63399 13.3405C2.36063 16.6573 3.38521 19.9507 5.49194 22.527L13.7637 32.6437C13.8749 32.7798 14.015 32.8895 14.1738 32.9648C14.3326 33.0401 14.5061 33.0792 14.6819 33.0792C14.8576 33.0792 15.0312 33.0401 15.19 32.9648C15.3488 32.8895 15.4888 32.7798 15.6 32.6437L23.8718 22.527C25.9773 19.9502 27.0006 16.6568 26.7263 13.3405C26.4846 10.4102 25.1498 7.67796 22.987 5.68617C20.8242 3.69438 17.9915 2.58873 15.0512 2.58872H14.3074Z" fill="#333333"/>
</svg>
