<svg width="26" height="31" viewBox="0 0 26 31" fill="none" xmlns="http://www.w3.org/2000/svg">
<path fill-rule="evenodd" clip-rule="evenodd" d="M12.9982 12.9426C13.9789 12.9426 14.9195 12.553 15.613 11.8596C16.3064 11.1661 16.696 10.2255 16.696 9.24475C16.696 8.26402 16.3064 7.32345 15.613 6.62996C14.9195 5.93647 13.9789 5.54688 12.9982 5.54688C12.0174 5.54688 11.0768 5.93647 10.3834 6.62996C9.68988 7.32345 9.30028 8.26402 9.30028 9.24475C9.30028 10.2255 9.68988 11.1661 10.3834 11.8596C11.0768 12.553 12.0174 12.9426 12.9982 12.9426ZM12.9982 7.39581C13.4885 7.39581 13.9588 7.59061 14.3056 7.93736C14.6523 8.2841 14.8471 8.75439 14.8471 9.24475C14.8471 9.73512 14.6523 10.2054 14.3056 10.5522C13.9588 10.8989 13.4885 11.0937 12.9982 11.0937C12.5078 11.0937 12.0375 10.8989 11.6908 10.5522C11.344 10.2054 11.1492 9.73512 11.1492 9.24475C11.1492 8.75439 11.344 8.2841 11.6908 7.93736C12.0375 7.59061 12.5078 7.39581 12.9982 7.39581Z" fill="#e7cc34"/>
<path fill-rule="evenodd" clip-rule="evenodd" d="M4.67793 8.84903C4.67793 13.7912 9.58317 22.1873 12.9982 22.1873C16.415 22.1873 21.3184 13.7912 21.3184 8.84903C21.3184 3.97522 17.6076 0 12.9982 0C8.38876 0 4.67793 3.97522 4.67793 8.84903ZM19.4695 8.84903C19.4695 12.9038 15.1281 20.3383 12.9982 20.3383C10.87 20.3383 6.52687 12.9056 6.52687 8.84903C6.52687 4.9681 9.43895 1.84894 12.9982 1.84894C16.5574 1.84894 19.4695 4.9681 19.4695 8.84903Z" fill="#e7cc34"/>
<path d="M19.3493 14.1258C19.1282 14.0307 18.9529 13.8531 18.8607 13.6308C18.7685 13.4085 18.7666 13.159 18.8555 12.9354C18.9443 12.7117 19.1169 12.5315 19.3365 12.4331C19.5561 12.3346 19.8054 12.3257 20.0315 12.4082C20.7834 12.7064 21.4609 13.1654 22.0167 13.7531C22.5724 14.3408 22.9929 15.0429 23.2487 15.8102L25.7152 23.206C25.9933 24.0401 26.0692 24.9284 25.9365 25.7976C25.8038 26.6668 25.4664 27.492 24.9521 28.2052C24.4377 28.9184 23.7612 29.499 22.9784 29.8993C22.1955 30.2996 21.3287 30.508 20.4494 30.5074H5.54692C4.66796 30.5075 3.80157 30.2986 3.01917 29.898C2.23677 29.4975 1.56076 28.9168 1.04686 28.2037C0.532949 27.4906 0.195861 26.6656 0.0633739 25.7967C-0.0691131 24.9278 0.00679455 24.0398 0.28484 23.206L2.74948 15.8102C3.00972 15.0291 3.44058 14.3158 4.01079 13.7219C4.581 13.128 5.27627 12.6685 6.04614 12.3767C6.15965 12.3336 6.28054 12.3133 6.4019 12.3169C6.52327 12.3206 6.64273 12.3481 6.75347 12.3978C6.86421 12.4476 6.96406 12.5187 7.04731 12.6071C7.13057 12.6955 7.19561 12.7994 7.2387 12.9129C7.2818 13.0264 7.30212 13.1473 7.2985 13.2687C7.29488 13.3901 7.26739 13.5095 7.2176 13.6203C7.1678 13.731 7.09669 13.8308 7.00831 13.9141C6.91993 13.9974 6.81602 14.0624 6.70251 14.1055C6.18861 14.2999 5.7245 14.6064 5.3439 15.0026C4.9633 15.3989 4.67579 15.875 4.50227 16.3963L2.03764 23.7921C1.85248 24.348 1.80208 24.94 1.89058 25.5192C1.97908 26.0984 2.20396 26.6483 2.54668 27.1235C2.88939 27.5988 3.34014 27.9858 3.86177 28.2527C4.3834 28.5195 4.96099 28.6586 5.54692 28.6585H20.4531C21.0391 28.6584 21.6167 28.5191 22.1382 28.252C22.6598 27.9849 23.1105 27.5977 23.453 27.1222C23.7956 26.6468 24.0202 26.0967 24.1085 25.5174C24.1967 24.9381 24.146 24.3461 23.9605 23.7902L21.4977 16.3945C21.3271 15.8832 21.0467 15.4153 20.6762 15.0238C20.3057 14.6322 19.8541 14.3264 19.353 14.1277" fill="#e7cc34"/>
</svg>
