<svg width="34" height="26" viewBox="0 0 34 26" fill="none" xmlns="http://www.w3.org/2000/svg">
<path d="M1 25V16.6C1.00376 15.3281 1.51068 14.1094 2.41004 13.21C3.3094 12.3107 4.52812 11.8038 5.8 11.8H27.4C28.6719 11.8038 29.8906 12.3107 30.79 13.21C31.6893 14.1094 32.1962 15.3281 32.2 16.6V25M26.2 11.8H4.6V4C4.60237 3.20508 4.91921 2.4434 5.4813 1.8813C6.0434 1.31921 6.80508 1.00237 7.6 1H25.6C26.3949 1.00237 27.1566 1.31921 27.7187 1.8813C28.2808 2.4434 28.5976 3.20508 28.6 4V11.8H26.2Z" stroke="#464444" stroke-width="2" stroke-linecap="round" stroke-linejoin="round"/>
<path d="M1 25V24.4C1.00139 23.923 1.19147 23.466 1.52874 23.1288C1.866 22.7915 2.32304 22.6014 2.8 22.6H30.4C30.877 22.6014 31.334 22.7915 31.6713 23.1288C32.0085 23.466 32.1986 23.923 32.2 24.4V25M5.8 11.8V10.6C5.80178 9.96404 6.05521 9.35463 6.50491 8.90492C6.95461 8.45522 7.56403 8.20179 8.2 8.20001H14.2C14.836 8.20179 15.4454 8.45522 15.8951 8.90492C16.3448 9.35463 16.5982 9.96404 16.6 10.6M16.6 10.6V11.8M16.6 10.6C16.6018 9.96404 16.8552 9.35463 17.3049 8.90492C17.7546 8.45522 18.364 8.20179 19 8.20001H25C25.636 8.20179 26.2454 8.45522 26.6951 8.90492C27.1448 9.35463 27.3982 9.96404 27.4 10.6V11.8" stroke="#464444" stroke-width="2" stroke-linecap="round" stroke-linejoin="round"/>
</svg>
