<svg width="19" height="19" viewBox="0 0 19 19" fill="none" xmlns="http://www.w3.org/2000/svg">
<path d="M8.50306 1.31777C8.60468 1.14514 8.75024 1.00191 8.92523 0.902363C9.10022 0.802815 9.29852 0.750427 9.50035 0.750427C9.70217 0.750427 9.90047 0.802815 10.0755 0.902363C10.2504 1.00191 10.396 1.14514 10.4976 1.31777L13.0786 5.70375L18.0908 6.77876C18.288 6.82117 18.4705 6.91401 18.6201 7.048C18.7697 7.182 18.8813 7.35248 18.9436 7.54244C19.0059 7.73241 19.0168 7.93523 18.9753 8.13068C18.9337 8.32613 18.8411 8.50739 18.7068 8.65638L15.2901 12.4418L15.8072 17.4923C15.8276 17.6912 15.795 17.8919 15.7125 18.0744C15.6301 18.2568 15.5007 18.4147 15.3373 18.5322C15.174 18.6497 14.9823 18.7227 14.7816 18.744C14.5808 18.7652 14.3779 18.7339 14.1931 18.6533L9.50035 16.6056L4.80757 18.6533C4.62281 18.7339 4.41991 18.7652 4.21913 18.744C4.01835 18.7227 3.82671 18.6497 3.66334 18.5322C3.49998 18.4147 3.37062 18.2568 3.28816 18.0744C3.2057 17.8919 3.17305 17.6912 3.19345 17.4923L3.71056 12.4418L0.293936 8.65729C0.159328 8.50831 0.0665508 8.32698 0.0248665 8.13141C-0.0168178 7.93584 -0.00595089 7.73286 0.0563824 7.54275C0.118716 7.35263 0.230335 7.18203 0.380096 7.04797C0.529857 6.91391 0.712521 6.82108 0.909851 6.77876L5.92213 5.70375L8.50306 1.31777Z" fill="#E7CA2F"/>
</svg>
